<svg width="87" height="87" viewBox="0 0 87 87" fill="none" xmlns="http://www.w3.org/2000/svg">
<circle cx="43.5" cy="43.5" r="43.5" fill="white"/>
<path d="M63.7316 19.3382C63.075 19.3865 62.4305 19.5425 61.8233 19.7998H61.8151C61.2322 20.0337 58.4608 21.2137 54.2473 23.0022L39.1486 29.438C28.3145 34.0542 17.6644 38.6001 17.6644 38.6001L17.7912 38.5504C17.7912 38.5504 17.0569 38.7947 16.2899 39.3267C15.816 39.6319 15.4083 40.0311 15.0913 40.5004C14.715 41.0593 14.4123 41.9143 14.5248 42.7982C14.7088 44.2928 15.6661 45.1891 16.3533 45.6838C17.0487 46.1848 17.7114 46.4187 17.7114 46.4187H17.7278L27.7152 49.8239C28.1631 51.2792 30.7586 59.9155 31.3825 61.9048C31.7506 63.093 32.1086 63.8362 32.5565 64.4034C32.7733 64.6932 33.0269 64.9354 33.3317 65.13C33.4901 65.2232 33.659 65.2969 33.8348 65.3494L33.7326 65.3246C33.7632 65.3328 33.7878 65.3577 33.8103 65.366C33.8921 65.3887 33.9473 65.397 34.0516 65.4136C35.6327 65.898 36.9028 64.9043 36.9028 64.9043L36.9744 64.8464L42.8712 59.4125L52.7542 67.0862L52.9792 67.1835C55.0389 68.0984 57.1251 67.5892 58.2276 66.6908C59.3382 65.7862 59.7698 64.629 59.7698 64.629L59.8414 64.4427L67.4787 24.8446C67.6955 23.8675 67.7507 22.9525 67.5114 22.0645C67.2646 21.1657 66.6948 20.3927 65.914 19.8971C65.2583 19.4937 64.498 19.299 63.7316 19.3382ZM63.525 23.5818C63.5168 23.7122 63.5414 23.6977 63.4841 23.9482V23.971L55.9184 63.1572C55.8857 63.2131 55.8304 63.3352 55.6791 63.4574C55.5195 63.5857 55.3927 63.6664 54.728 63.3994L42.64 54.02L35.3382 60.7559L36.8722 50.8403L56.622 32.2098C57.436 31.4439 57.164 31.2824 57.164 31.2824C57.2213 30.3426 55.9347 31.0071 55.9347 31.0071L31.0307 46.6216L31.0225 46.5802L19.0859 42.5125V42.5042L19.0552 42.498C19.0761 42.491 19.0966 42.4827 19.1166 42.4732L19.182 42.4401L19.2454 42.4173C19.2454 42.4173 29.9037 37.8714 40.7379 33.2552C46.1621 30.9429 51.6273 28.6141 55.8304 26.8173C60.0336 25.0309 63.1405 23.7205 63.3164 23.6501C63.4841 23.5839 63.4043 23.5839 63.525 23.5839V23.5818Z" fill="#333333"/>
</svg>
